HIERARCHY
ROOT Hips
{
  OFFSET 0 0 0
  CHANNELS 6 Xposition Yposition Zposition Zrotation Yrotation Xrotation
  JOINT LeftThigh
  {
    OFFSET 8.409438 0 -5.917753
    CHANNELS 3 Zrotation Yrotation Xrotation
    JOINT LeftLeg
    {
      OFFSET 0 0 -42.358652
      CHANNELS 3 Zrotation Yrotation Xrotation
      JOINT LeftFoot
      {
        OFFSET 0 0 -39.357303
        CHANNELS 3 Zrotation Yrotation Xrotation
      }
    }
  }
  JOINT RightThigh
  {
    OFFSET -8.409438 0 -5.917753
    CHANNELS 3 Zrotation Yrotation Xrotation
    JOINT RightLeg
    {
      OFFSET 0 0 -42.358652
      CHANNELS 3 Zrotation Yrotation Xrotation
      JOINT RightFoot
      {
        OFFSET 0 0 -39.357303
        CHANNELS 3 Zrotation Yrotation Xrotation
      }
    }
  }
  JOINT SpineLow
  {
    OFFSET 0 0 4.719101
    CHANNELS 3 Zrotation Yrotation Xrotation
    JOINT SpineMid
    {
      OFFSET 0 0 12.899191
      CHANNELS 3 Zrotation Yrotation Xrotation
      JOINT Chest
      {
        OFFSET 0 0 12.899191
        CHANNELS 3 Zrotation Yrotation Xrotation
        JOINT LeftShoulder
        {
          OFFSET 7.550562 1.41573 9.438202
          CHANNELS 3 Zrotation Yrotation Xrotation
          JOINT LeftArm
          {
            OFFSET 9.155056 0 4.247191
            CHANNELS 3 Zrotation Yrotation Xrotation
            JOINT LeftForearm
            {
              OFFSET 0 0 25.771955
              CHANNELS 3 Zrotation Yrotation Xrotation
              JOINT LeftHand
              {
                OFFSET 0 0 25.197169
                CHANNELS 3 Zrotation Yrotation Xrotation
              }
            }
          }
        }
        JOINT RightShoulder
        {
          OFFSET -7.550562 1.41573 9.438202
          CHANNELS 3 Zrotation Yrotation Xrotation
          JOINT RightArm
          {
            OFFSET -9.155056 0 4.247191
            CHANNELS 3 Zrotation Yrotation Xrotation
            JOINT RightForearm
            {
              OFFSET 0 0 -25.771955
              CHANNELS 3 Zrotation Yrotation Xrotation
              JOINT RightHand
              {
                OFFSET 0 0 -25.197169
                CHANNELS 3 Zrotation Yrotation Xrotation
              }
            }
          }
        }
        JOINT Neck
        {
          OFFSET 0 0 15.101124
          CHANNELS 3 Zrotation Yrotation Xrotation
          JOINT Head
          {
            OFFSET 0 0 11.325843
            CHANNELS 3 Zrotation Yrotation Xrotation
            End Site
            {
              OFFSET 0 0 14.157303
            }
          }
        }
      }
    }
  }
}
MOTION
Frames: 6
Frame Time: 0.0
0.0  89.887642  0.0  1.251969  -14.920617  -95.279589  11.84811  -12.51973  3.392756  -0.041845  4.792693  17.280611  -2.767044  -0.37812  -1.264473  -4.445869  7.227636  -9.592889  -5.541606  12.370783  20.484971  5.180104  1.598581  -0.149089  4.15437  -0.364867  1.506432  11.328981  -1.251695  4.041611  11.328981  -1.251695  4.041612  1.004547  -0.462162  -0.669623  164.72656  25.220529  -153.239774  -8.014292  -8.571927  73.768805  92.104043  4.343031  20.956078  -0.120054  -6.59984  13.797629  92.417156  37.858144  25.139989  -1.377718  -20.953472  -93.786904  66.629494  4.333704  -13.900507  -18.56372  1.633677  3.069813  -13.930459  1.133243  2.354442  
0.0  89.887642  0.0  1.521707  -19.395548  -95.366982  11.195981  -12.734212  3.087253  3.670449  5.691111  19.042901  -2.391552  -0.292772  -1.358472  -1.996229  6.60212  -11.239214  -3.231376  12.658157  22.511657  5.482428  1.619675  -0.109179  4.119226  -0.043951  1.456119  11.252249  -0.367124  3.959459  11.252249  -0.367124  3.95946  2.690827  -1.798912  0.871385  167.62254  22.328658  -158.436052  -17.852359  -6.238714  85.89529  84.351786  8.744859  20.733134  -2.668109  -7.790261  14.526894  88.409493  39.210364  24.386284  -2.716499  -17.257994  -94.537008  69.254702  7.711861  -13.51939  -15.66639  0.754268  3.236117  -11.754004  0.483106  2.448305  
0.0  89.887642  0.0  1.838832  -23.502365  -95.79444  11.314396  -13.0724  3.558393  5.834068  6.783005  20.397  -2.155722  -0.217456  -1.559037  0.413776  6.124993  -12.386387  -1.6145  12.956329  24.08842  5.38152  1.592823  -0.014938  4.143467  -0.177227  1.169133  11.314499  -0.682529  3.154734  11.3145  -0.682529  3.154734  2.688274  0.326891  5.726901  171.012154  20.011448  -163.855602  -15.976506  2.964332  91.363897  76.275839  4.720857  10.338565  -6.907441  -6.26831  17.481272  83.279061  40.389119  23.176691  -3.624765  -13.307833  -94.803356  73.540073  10.312072  -11.12505  -13.370835  1.528203  4.07075  -10.038234  1.057728  3.088083  
0.0  89.887642  0.0  2.02149  -27.556184  -97.283391  11.120728  -13.946806  4.868573  7.776378  8.307808  22.325013  -1.673426  -0.236627  -1.763993  2.427336  5.595564  -12.81933  -0.102402  13.172863  25.597947  5.075286  1.503128  0.153158  4.083235  -0.334841  1.007162  11.145845  -1.081771  2.687759  11.145845  -1.081771  2.687759  2.525394  2.674331  9.956836  174.776224  18.261995  -169.839946  -21.933338  8.665274  96.010495  60.391502  2.58575  11.224364  -10.438279  -4.782151  20.213762  77.449389  41.321814  22.090792  -6.29292  -9.338686  -92.553374  78.124898  10.636495  -9.51694  -10.810309  2.004622  5.082022  -8.124239  1.414206  3.84803  
0.0  89.887642  0.0  2.553239  -29.709424  -98.098795  9.604444  -14.258908  4.946861  9.950194  10.10211  24.959404  -0.967825  -0.311006  -1.807495  1.668003  5.883507  -13.230732  1.3457  12.871909  25.934119  5.1788  1.40335  0.41788  3.553651  -0.169958  1.0657  9.704146  -0.619642  2.880898  9.704145  -0.619642  2.880898  4.611698  3.577455  12.542837  176.838594  15.60248  -174.232647  -27.768476  16.115943  96.885048  43.596123  1.872315  16.034755  -11.737033  -4.39148  20.616614  71.449563  42.620314  21.573508  -9.278167  -3.779334  -89.201629  78.606542  7.449956  -7.927889  -7.627657  1.54434  5.028603  -5.733564  1.095781  3.791202  
0.0  89.887642  0.0  2.886569  -31.496323  -99.346897  9.036152  -14.974147  4.898358  11.65331  11.672314  28.288052  -0.631293  -0.41619  -1.703267  0.894777  6.307237  -12.709502  2.112178  12.157881  25.879674  5.530319  1.147308  0.619801  3.238932  0.131467  1.345018  8.85748  0.178622  3.686491  8.857481  0.178622  3.686491  5.54606  3.910451  13.560562  176.119536  12.76988  -177.500784  -34.270633  20.951294  93.386328  28.038634  2.780887  22.956929  -13.709818  -5.562713  19.682793  66.350087  43.845179  22.005265  -11.19598  2.168443  -85.075815  74.920884  3.114477  -7.150487  -5.510261  0.346408  4.637754  -4.135594  0.218024  3.481764  
